<?xml version="1.0" encoding="UTF-8"?>
<svg width="1000px" height="1000px" viewBox="0 0 1000 1000" version="1.1" xmlns="http://www.w3.org/2000/svg" xmlns:xlink="http://www.w3.org/1999/xlink">
    <g stroke="none" stroke-width="1" fill="none" fill-rule="evenodd">
        <g>
            <g>
                <circle fill="#DDE8F4" cx="500" cy="500" r="500"></circle>
                <g transform="translate(167.000000, 250.000000)" fill="#313C48" fill-rule="nonzero">
                    <path d="M604.46167,0 L62.5305176,0 C27.9954338,0 0,27.9817708 0,62.5 L0,437.5 C0,472.018229 27.9954338,500 62.5305176,500 L604.46167,500 C638.996754,500 666.992188,472.018229 666.992188,437.5 L666.992188,62.5 C666.992188,27.9817708 638.996754,0 604.46167,0 Z M596.645355,437.5 L70.3468323,437.5 C66.0300009,437.5 62.5305176,434.002225 62.5305176,429.6875 L62.5305176,70.3125 C62.5305176,65.9977754 66.0300009,62.5 70.3468323,62.5 L596.645355,62.5 C600.962187,62.5 604.46167,65.9977754 604.46167,70.3125 L604.46167,429.6875 C604.46167,434.002225 600.962187,437.5 596.645355,437.5 Z M166.748047,114.583333 C137.969679,114.583333 114.639282,137.902344 114.639282,166.666667 C114.639282,195.43099 137.969679,218.75 166.748047,218.75 C195.526415,218.75 218.856812,195.43099 218.856812,166.666667 C218.856812,137.902344 195.526415,114.583333 166.748047,114.583333 Z M125.061035,375 L541.931152,375 L541.931152,270.833333 L427.923689,156.88151 C421.819147,150.779948 411.921087,150.779948 405.815243,156.88151 L250.12207,312.5 L198.645124,261.048177 C192.540583,254.946615 182.642523,254.946615 176.536678,261.048177 L125.061035,312.5 L125.061035,375 Z"></path>
                </g>
                <g transform="translate(669.000000, 622.000000)" fill="#D1BE52" fill-rule="nonzero">
                    <path d="M234.375,131.25 L220.3125,131.25 L220.3125,89.0625 C220.3125,39.9609375 180.351562,0 131.25,0 C82.1484375,0 42.1875,39.9609375 42.1875,89.0625 L42.1875,131.25 L28.125,131.25 C12.5976562,131.25 0,143.847656 0,159.375 L0,271.875 C0,287.402344 12.5976562,300 28.125,300 L234.375,300 C249.902344,300 262.5,287.402344 262.5,271.875 L262.5,159.375 C262.5,143.847656 249.902344,131.25 234.375,131.25 Z M173.4375,131.25 L89.0625,131.25 L89.0625,89.0625 C89.0625,65.8007812 107.988281,46.875 131.25,46.875 C154.511719,46.875 173.4375,65.8007812 173.4375,89.0625 L173.4375,131.25 Z"></path>
                </g>
                <rect fill="#313C48" x="771.5" y="601" width="62.5" height="87.1397206"></rect>
            </g>
        </g>
    </g>
</svg>