<?xml version="1.0" encoding="UTF-8"?>
<svg width="2048px" height="2048px" viewBox="0 0 2048 2048" version="1.1" xmlns="http://www.w3.org/2000/svg" xmlns:xlink="http://www.w3.org/1999/xlink">
    <defs>
        <linearGradient x1="50%" y1="0%" x2="50%" y2="100%" id="linearGradient-1">
            <stop stop-color="#D60808" offset="0%"></stop>
            <stop stop-color="#8E0606" offset="100%"></stop>
        </linearGradient>
    </defs>
    <g id="Icon-v3" stroke="none" stroke-width="1" fill="none" fill-rule="evenodd">
        <path d="M1024,2048 C1706.66667,1749.33333 2048,1134.66667 2048,204 C1586,204 1244.66667,136 1024,2.27373675e-13 C803.683876,136 462.350542,204 0,204 C0,1134.66667 341.333333,1749.33333 1024,2048 Z" id="Shield" fill="url(#linearGradient-1)"></path>
        <g id="lock" transform="translate(576.000000, 452.000000)" fill="#FFFFFF" fill-rule="nonzero">
            <path d="M800.892857,448 L752.839286,448 L752.839286,304 C752.839286,136.4 616.287054,0 448.5,0 C280.712946,0 144.160714,136.4 144.160714,304 L144.160714,448 L96.1071429,448 C43.0479911,448 0,491 0,544 L0,928 C0,981 43.0479911,1024 96.1071429,1024 L800.892857,1024 C853.952009,1024 897,981 897,928 L897,544 C897,491 853.952009,448 800.892857,448 Z M592.660714,448 L304.339286,448 L304.339286,304 C304.339286,224.6 369.011384,160 448.5,160 C527.988616,160 592.660714,224.6 592.660714,304 L592.660714,448 Z" id="Shape"></path>
        </g>
        <g id="Asset" transform="translate(678.000000, 992.000000)" fill="#B00707">
            <circle id="Oval" cx="65" cy="65" r="65"></circle>
            <path d="M0,388 L4.40563318e-15,297.381918 L67.6090018,241.914393 C83.5978304,228.796898 106.949742,230.030448 121.467597,244.759439 L179.245814,303.377933 L442.80479,96.1632311 C456.550676,85.3559741 475.723137,84.7296474 490.145066,94.6167173 L692,233 L692,388 L0,388 Z" id="Path-2"></path>
        </g>
    </g>
</svg>